<svg xmlns="http://www.w3.org/2000/svg" xmlns:xlink="http://www.w3.org/1999/xlink" width="170" zoomAndPan="magnify" viewBox="0 0 127.5 56.999997" height="76" preserveAspectRatio="xMidYMid meet" version="1.0"><defs><g/><clipPath id="ee371d87a3"><path d="M 1.238281 16.222656 L 27 16.222656 L 27 40 L 1.238281 40 Z M 1.238281 16.222656 " clip-rule="nonzero"/></clipPath></defs><g clip-path="url(#ee371d87a3)"><path fill="#3cb371" d="M 11.183594 25.617188 C 10.894531 25.402344 10.625 25.15625 10.386719 24.882812 C 10.144531 24.613281 9.933594 24.316406 9.753906 24 C 9.578125 23.683594 9.433594 23.355469 9.320312 23.007812 C 9.210938 22.660156 9.140625 22.304688 9.105469 21.945312 C 9.066406 21.582031 9.070312 21.222656 9.109375 20.859375 C 9.148438 20.5 9.226562 20.144531 9.339844 19.800781 C 9.457031 19.453125 9.605469 19.125 9.785156 18.8125 C 9.96875 18.496094 10.183594 18.203125 10.429688 17.933594 C 10.671875 17.667969 10.941406 17.425781 11.234375 17.210938 C 11.53125 17 11.84375 16.820312 12.175781 16.671875 C 12.507812 16.523438 12.851562 16.414062 13.207031 16.335938 C 13.566406 16.261719 13.925781 16.222656 14.289062 16.222656 C 14.652344 16.222656 15.011719 16.261719 15.367188 16.335938 C 15.722656 16.414062 16.066406 16.523438 16.398438 16.671875 C 16.730469 16.820312 17.042969 17 17.339844 17.210938 C 17.632812 17.425781 17.902344 17.667969 18.148438 17.933594 C 18.390625 18.203125 18.605469 18.496094 18.789062 18.8125 C 18.972656 19.125 19.121094 19.453125 19.234375 19.800781 C 19.347656 20.144531 19.425781 20.5 19.464844 20.859375 C 19.503906 21.222656 19.507812 21.582031 19.472656 21.945312 C 19.4375 22.304688 19.363281 22.660156 19.253906 23.007812 C 19.144531 23.355469 19 23.683594 18.820312 24 C 18.640625 24.316406 18.429688 24.613281 18.191406 24.882812 C 17.949219 25.15625 17.683594 25.402344 17.390625 25.617188 L 15.585938 26.957031 C 15.390625 27.101562 15.230469 27.277344 15.105469 27.480469 C 14.976562 27.6875 14.886719 27.90625 14.839844 28.144531 C 14.792969 28.378906 14.789062 28.617188 14.828125 28.855469 C 14.867188 29.09375 14.949219 29.316406 15.066406 29.527344 C 15.1875 29.734375 15.34375 29.914062 15.527344 30.070312 C 15.714844 30.222656 15.921875 30.335938 16.152344 30.414062 C 16.382812 30.492188 16.617188 30.523438 16.855469 30.515625 C 17.097656 30.507812 17.332031 30.457031 17.550781 30.363281 L 19.613281 29.46875 C 19.945312 29.324219 20.289062 29.214844 20.644531 29.144531 C 21.003906 29.070312 21.363281 29.035156 21.726562 29.039062 C 22.089844 29.042969 22.449219 29.082031 22.804688 29.160156 C 23.160156 29.238281 23.503906 29.351562 23.835938 29.503906 C 24.164062 29.652344 24.476562 29.835938 24.769531 30.050781 C 25.0625 30.265625 25.332031 30.511719 25.574219 30.78125 C 25.816406 31.054688 26.027344 31.347656 26.207031 31.664062 C 26.386719 31.976562 26.53125 32.308594 26.644531 32.65625 C 26.753906 33 26.828125 33.355469 26.867188 33.71875 C 26.902344 34.078125 26.902344 34.441406 26.863281 34.800781 C 26.824219 35.164062 26.75 35.515625 26.636719 35.863281 C 26.523438 36.207031 26.378906 36.539062 26.195312 36.855469 C 26.011719 37.167969 25.800781 37.460938 25.558594 37.730469 C 25.316406 38.003906 25.046875 38.246094 24.753906 38.457031 C 24.457031 38.671875 24.144531 38.855469 23.8125 39.003906 C 23.480469 39.152344 23.136719 39.265625 22.78125 39.339844 C 22.425781 39.417969 22.066406 39.457031 21.703125 39.457031 C 21.339844 39.457031 20.980469 39.421875 20.625 39.347656 C 20.269531 39.273438 19.921875 39.164062 19.589844 39.019531 C 19.257812 38.871094 18.945312 38.691406 18.648438 38.480469 C 18.351562 38.269531 18.082031 38.027344 17.835938 37.761719 C 17.59375 37.492188 17.378906 37.199219 17.191406 36.886719 C 17.007812 36.574219 16.859375 36.246094 16.742188 35.898438 C 16.628906 35.554688 16.550781 35.203125 16.507812 34.839844 L 16.253906 32.609375 C 16.226562 32.371094 16.15625 32.140625 16.046875 31.925781 C 15.933594 31.710938 15.785156 31.519531 15.605469 31.359375 C 15.421875 31.195312 15.21875 31.074219 14.992188 30.984375 C 14.765625 30.898438 14.53125 30.855469 14.285156 30.855469 C 14.042969 30.855469 13.808594 30.898438 13.582031 30.984375 C 13.355469 31.074219 13.148438 31.195312 12.96875 31.359375 C 12.785156 31.519531 12.640625 31.710938 12.527344 31.925781 C 12.417969 32.140625 12.347656 32.371094 12.320312 32.609375 L 12.0625 34.839844 C 12.023438 35.203125 11.945312 35.554688 11.828125 35.898438 C 11.714844 36.246094 11.5625 36.574219 11.378906 36.886719 C 11.195312 37.199219 10.980469 37.492188 10.734375 37.761719 C 10.492188 38.027344 10.21875 38.269531 9.925781 38.480469 C 9.628906 38.691406 9.316406 38.871094 8.984375 39.019531 C 8.648438 39.164062 8.304688 39.273438 7.949219 39.347656 C 7.59375 39.421875 7.234375 39.457031 6.871094 39.457031 C 6.507812 39.457031 6.144531 39.417969 5.789062 39.339844 C 5.433594 39.265625 5.089844 39.152344 4.761719 39.003906 C 4.429688 38.855469 4.113281 38.671875 3.820312 38.457031 C 3.527344 38.246094 3.257812 38.003906 3.015625 37.730469 C 2.773438 37.460938 2.558594 37.167969 2.378906 36.855469 C 2.195312 36.539062 2.046875 36.207031 1.9375 35.863281 C 1.824219 35.515625 1.746094 35.164062 1.710938 34.800781 C 1.671875 34.441406 1.667969 34.078125 1.707031 33.71875 C 1.742188 33.355469 1.816406 33 1.929688 32.65625 C 2.039062 32.308594 2.1875 31.976562 2.367188 31.664062 C 2.546875 31.347656 2.757812 31.054688 3 30.78125 C 3.242188 30.511719 3.511719 30.265625 3.804688 30.050781 C 4.097656 29.835938 4.40625 29.652344 4.738281 29.503906 C 5.070312 29.351562 5.414062 29.238281 5.769531 29.160156 C 6.125 29.082031 6.484375 29.042969 6.847656 29.039062 C 7.210938 29.035156 7.570312 29.070312 7.925781 29.144531 C 8.28125 29.214844 8.628906 29.324219 8.960938 29.46875 L 11.019531 30.363281 C 11.242188 30.457031 11.476562 30.507812 11.714844 30.515625 C 11.957031 30.523438 12.191406 30.492188 12.421875 30.414062 C 12.648438 30.335938 12.855469 30.222656 13.042969 30.070312 C 13.230469 29.914062 13.382812 29.734375 13.503906 29.527344 C 13.625 29.316406 13.707031 29.09375 13.746094 28.855469 C 13.785156 28.617188 13.78125 28.378906 13.730469 28.144531 C 13.683594 27.90625 13.597656 27.6875 13.46875 27.480469 C 13.339844 27.277344 13.179688 27.101562 12.988281 26.957031 Z M 11.183594 25.617188 " fill-opacity="1" fill-rule="evenodd"/></g><g fill="#1e2122" fill-opacity="1"><g transform="translate(30.625041, 34.403724)"><g><path d="M 0.0625 -2.203125 L 1.703125 -4.265625 C 2.503906 -3.554688 3.28125 -3.039062 4.03125 -2.71875 C 4.78125 -2.394531 5.570312 -2.234375 6.40625 -2.234375 C 7.257812 -2.234375 7.941406 -2.390625 8.453125 -2.703125 C 8.972656 -3.023438 9.234375 -3.453125 9.234375 -3.984375 C 9.234375 -4.460938 9.054688 -4.832031 8.703125 -5.09375 C 8.359375 -5.351562 7.773438 -5.550781 6.953125 -5.6875 L 4.203125 -6.15625 C 3.015625 -6.351562 2.113281 -6.769531 1.5 -7.40625 C 0.882812 -8.039062 0.578125 -8.859375 0.578125 -9.859375 C 0.578125 -11.160156 1.066406 -12.1875 2.046875 -12.9375 C 3.035156 -13.6875 4.367188 -14.0625 6.046875 -14.0625 C 7.046875 -14.0625 8.054688 -13.890625 9.078125 -13.546875 C 10.109375 -13.203125 11.003906 -12.726562 11.765625 -12.125 L 10.21875 -9.984375 C 9.476562 -10.554688 8.75 -10.976562 8.03125 -11.25 C 7.320312 -11.519531 6.59375 -11.65625 5.84375 -11.65625 C 5.082031 -11.65625 4.46875 -11.507812 4 -11.21875 C 3.539062 -10.9375 3.3125 -10.554688 3.3125 -10.078125 C 3.3125 -9.660156 3.460938 -9.332031 3.765625 -9.09375 C 4.066406 -8.851562 4.578125 -8.679688 5.296875 -8.578125 L 7.90625 -8.140625 C 9.28125 -7.921875 10.3125 -7.484375 11 -6.828125 C 11.695312 -6.171875 12.046875 -5.304688 12.046875 -4.234375 C 12.046875 -2.890625 11.515625 -1.8125 10.453125 -1 C 9.390625 -0.195312 7.972656 0.203125 6.203125 0.203125 C 5.085938 0.203125 3.992188 -0.00390625 2.921875 -0.421875 C 1.847656 -0.847656 0.894531 -1.441406 0.0625 -2.203125 Z M 0.0625 -2.203125 "/></g></g></g><g fill="#1e2122" fill-opacity="1"><g transform="translate(42.554492, 34.403724)"><g><path d="M 0.59375 -5.15625 C 0.59375 -5.90625 0.734375 -6.601562 1.015625 -7.25 C 1.304688 -7.90625 1.695312 -8.472656 2.1875 -8.953125 C 2.6875 -9.441406 3.269531 -9.820312 3.9375 -10.09375 C 4.613281 -10.375 5.335938 -10.515625 6.109375 -10.515625 C 6.867188 -10.515625 7.582031 -10.375 8.25 -10.09375 C 8.925781 -9.820312 9.515625 -9.441406 10.015625 -8.953125 C 10.515625 -8.472656 10.90625 -7.90625 11.1875 -7.25 C 11.46875 -6.601562 11.609375 -5.90625 11.609375 -5.15625 C 11.609375 -4.394531 11.46875 -3.6875 11.1875 -3.03125 C 10.90625 -2.382812 10.515625 -1.820312 10.015625 -1.34375 C 9.515625 -0.875 8.925781 -0.5 8.25 -0.21875 C 7.582031 0.0625 6.867188 0.203125 6.109375 0.203125 C 5.335938 0.203125 4.613281 0.0625 3.9375 -0.21875 C 3.269531 -0.5 2.6875 -0.875 2.1875 -1.34375 C 1.695312 -1.820312 1.304688 -2.382812 1.015625 -3.03125 C 0.734375 -3.6875 0.59375 -4.394531 0.59375 -5.15625 Z M 6.109375 -2.15625 C 6.898438 -2.15625 7.570312 -2.445312 8.125 -3.03125 C 8.675781 -3.613281 8.953125 -4.320312 8.953125 -5.15625 C 8.953125 -6 8.675781 -6.707031 8.125 -7.28125 C 7.570312 -7.863281 6.898438 -8.15625 6.109375 -8.15625 C 5.304688 -8.15625 4.628906 -7.863281 4.078125 -7.28125 C 3.523438 -6.707031 3.25 -6 3.25 -5.15625 C 3.25 -4.320312 3.523438 -3.613281 4.078125 -3.03125 C 4.628906 -2.445312 5.304688 -2.15625 6.109375 -2.15625 Z M 6.109375 -2.15625 "/></g></g></g><g fill="#1e2122" fill-opacity="1"><g transform="translate(54.166882, 34.403724)"><g><path d="M 0.359375 -10.328125 L 2.65625 -10.328125 L 2.65625 -11.3125 C 2.65625 -12.457031 2.988281 -13.34375 3.65625 -13.96875 C 4.332031 -14.59375 5.304688 -14.90625 6.578125 -14.90625 C 6.859375 -14.90625 7.140625 -14.882812 7.421875 -14.84375 C 7.710938 -14.8125 7.96875 -14.769531 8.1875 -14.71875 L 8.1875 -12.4375 C 7.9375 -12.488281 7.710938 -12.523438 7.515625 -12.546875 C 7.328125 -12.578125 7.128906 -12.59375 6.921875 -12.59375 C 6.398438 -12.59375 6.007812 -12.476562 5.75 -12.25 C 5.5 -12.03125 5.375 -11.695312 5.375 -11.25 L 5.375 -10.328125 L 8.1875 -10.328125 L 8.1875 -8.046875 L 5.375 -8.046875 L 5.375 0 L 2.65625 0 L 2.65625 -8.046875 L 0.359375 -8.046875 Z M 0.359375 -10.328125 "/></g></g></g><g fill="#1e2122" fill-opacity="1"><g transform="translate(62.113215, 34.403724)"><g><path d="M 2.484375 -2.90625 L 2.484375 -8.046875 L 0.359375 -8.046875 L 0.359375 -10.328125 L 2.484375 -10.328125 L 2.484375 -12.953125 L 5.1875 -13.578125 L 5.1875 -10.328125 L 8.125 -10.328125 L 8.125 -8.046875 L 5.1875 -8.046875 L 5.1875 -3.46875 C 5.1875 -2.976562 5.289062 -2.632812 5.5 -2.4375 C 5.71875 -2.238281 6.09375 -2.140625 6.625 -2.140625 C 6.875 -2.140625 7.109375 -2.15625 7.328125 -2.1875 C 7.554688 -2.21875 7.800781 -2.28125 8.0625 -2.375 L 8.0625 -0.15625 C 7.769531 -0.0625 7.421875 0.0078125 7.015625 0.0625 C 6.609375 0.125 6.257812 0.15625 5.96875 0.15625 C 4.8125 0.15625 3.941406 -0.101562 3.359375 -0.625 C 2.773438 -1.144531 2.484375 -1.90625 2.484375 -2.90625 Z M 2.484375 -2.90625 "/></g></g></g><g fill="#1e2122" fill-opacity="1"><g transform="translate(69.920833, 34.403724)"><g/></g></g><g fill="#1e2122" fill-opacity="1"><g transform="translate(73.309367, 34.403724)"><g><path d="M 0.359375 -11.328125 L 0.359375 -13.875 L 12.5625 -13.875 L 12.5625 -11.328125 L 7.90625 -11.328125 L 7.90625 0 L 5.03125 0 L 5.03125 -11.328125 Z M 0.359375 -11.328125 "/></g></g></g><g fill="#1e2122" fill-opacity="1"><g transform="translate(85.635148, 34.403724)"><g><path d="M 1.0625 0 L 1.0625 -10.328125 L 3.78125 -10.328125 L 3.78125 -9.1875 C 4.113281 -9.632812 4.515625 -9.972656 4.984375 -10.203125 C 5.453125 -10.441406 5.96875 -10.5625 6.53125 -10.5625 C 6.800781 -10.550781 7.023438 -10.523438 7.203125 -10.484375 C 7.378906 -10.453125 7.535156 -10.398438 7.671875 -10.328125 L 7.671875 -7.9375 C 7.472656 -8.03125 7.253906 -8.097656 7.015625 -8.140625 C 6.773438 -8.191406 6.53125 -8.21875 6.28125 -8.21875 C 5.75 -8.21875 5.257812 -8.085938 4.8125 -7.828125 C 4.375 -7.566406 4.03125 -7.179688 3.78125 -6.671875 L 3.78125 0 Z M 1.0625 0 "/></g></g></g><g fill="#1e2122" fill-opacity="1"><g transform="translate(93.105884, 34.403724)"><g><path d="M 3.703125 -10.328125 L 3.703125 -4.3125 C 3.703125 -3.65625 3.894531 -3.128906 4.28125 -2.734375 C 4.675781 -2.335938 5.195312 -2.140625 5.84375 -2.140625 C 6.300781 -2.140625 6.710938 -2.226562 7.078125 -2.40625 C 7.441406 -2.582031 7.742188 -2.835938 7.984375 -3.171875 L 7.984375 -10.328125 L 10.703125 -10.328125 L 10.703125 0 L 7.984375 0 L 7.984375 -0.828125 C 7.585938 -0.503906 7.144531 -0.25 6.65625 -0.0625 C 6.164062 0.113281 5.640625 0.203125 5.078125 0.203125 C 3.878906 0.203125 2.894531 -0.179688 2.125 -0.953125 C 1.363281 -1.734375 0.984375 -2.722656 0.984375 -3.921875 L 0.984375 -10.328125 Z M 3.703125 -10.328125 "/></g></g></g><g fill="#1e2122" fill-opacity="1"><g transform="translate(104.262492, 34.403724)"><g><path d="M 6.125 -2.171875 C 6.582031 -2.171875 7.015625 -2.265625 7.421875 -2.453125 C 7.828125 -2.640625 8.210938 -2.929688 8.578125 -3.328125 L 10.203125 -1.640625 C 9.671875 -1.054688 9.035156 -0.601562 8.296875 -0.28125 C 7.554688 0.0390625 6.789062 0.203125 6 0.203125 C 5.25 0.203125 4.539062 0.0625 3.875 -0.21875 C 3.207031 -0.5 2.628906 -0.875 2.140625 -1.34375 C 1.660156 -1.820312 1.28125 -2.382812 1 -3.03125 C 0.726562 -3.6875 0.59375 -4.394531 0.59375 -5.15625 C 0.59375 -5.90625 0.726562 -6.601562 1 -7.25 C 1.28125 -7.90625 1.660156 -8.472656 2.140625 -8.953125 C 2.628906 -9.441406 3.207031 -9.820312 3.875 -10.09375 C 4.539062 -10.375 5.25 -10.515625 6 -10.515625 C 6.820312 -10.515625 7.609375 -10.351562 8.359375 -10.03125 C 9.109375 -9.707031 9.75 -9.253906 10.28125 -8.671875 L 8.625 -6.921875 C 8.25 -7.328125 7.847656 -7.632812 7.421875 -7.84375 C 7.003906 -8.050781 6.550781 -8.15625 6.0625 -8.15625 C 5.28125 -8.15625 4.617188 -7.863281 4.078125 -7.28125 C 3.546875 -6.707031 3.28125 -6 3.28125 -5.15625 C 3.28125 -4.3125 3.554688 -3.601562 4.109375 -3.03125 C 4.660156 -2.457031 5.332031 -2.171875 6.125 -2.171875 Z M 6.125 -2.171875 "/></g></g></g><g fill="#1e2122" fill-opacity="1"><g transform="translate(114.210293, 34.403724)"><g><path d="M 1.0625 0 L 1.0625 -13.875 L 3.78125 -14.46875 L 3.78125 -5.96875 L 8.234375 -10.328125 L 11.3125 -10.328125 L 6.484375 -5.59375 L 11.609375 0 L 8.140625 0 L 3.78125 -4.71875 L 3.78125 0 Z M 1.0625 0 "/></g></g></g></svg>